<?xml version="1.0" encoding="utf-8"?>
<!-- Generator: Adobe Illustrator 19.1.0, SVG Export Plug-In . SVG Version: 6.00 Build 0)  -->
<!DOCTYPE svg PUBLIC "-//W3C//DTD SVG 1.1//EN" "http://www.w3.org/Graphics/SVG/1.1/DTD/svg11.dtd">
<svg version="1.1" id="Layer_1" xmlns="http://www.w3.org/2000/svg" xmlns:xlink="http://www.w3.org/1999/xlink" x="0px" y="0px"
	 viewBox="109.4 -7.8 246.6 122.3" enable-background="new 109.4 -7.8 246.6 122.3" xml:space="preserve">
<ellipse fill="#4D4D4D" cx="232.7" cy="102.2" rx="123.3" ry="5.2"/>
<path fill="#4C8575" d="M318,100.7H149.2c0.1-46,37.8-84.2,84.4-84.2S317.9,54.7,318,100.7z"/>
<rect x="209.1" y="53.6" fill="none" width="140.2" height="60.9"/>
<text transform="matrix(1 0 0 1 209.1338 93.3297)" fill="#FFFFFF" font-family="'Montserrat-Bold'" font-size="53.5px">iter</text>
<text transform="matrix(0.5654 -0.6842 0.7709 0.637 148.3645 56.4826)" fill="#4D4D4D" font-family="'Montserrat-Bold'" font-size="22.5909px">P</text>
<text transform="matrix(0.6412 -0.6138 0.6915 0.7224 156.6816 46.3074)" fill="#4D4D4D" font-family="'Montserrat-Bold'" font-size="22.5909px">A</text>
<text transform="matrix(0.7134 -0.5282 0.595 0.8037 167.1305 36.2716)" fill="#4D4D4D" font-family="'Montserrat-Bold'" font-size="22.5909px">R</text>
<text transform="matrix(0.7713 -0.4393 0.4949 0.869 178.5178 27.8892)" fill="#4D4D4D" font-family="'Montserrat-Bold'" font-size="22.5919px">T</text>
<text transform="matrix(0.8226 -0.3333 0.3755 0.9268 188.6144 21.9365)" fill="#4D4D4D" font-family="'Montserrat-Bold'" font-size="22.5909px">N</text>
<text transform="matrix(0.8614 -0.2141 0.2412 0.9705 203.3373 16.0507)" fill="#4D4D4D" font-family="'Montserrat-Bold'" font-size="22.5909px">E</text>
<text transform="matrix(0.8823 -9.640074e-02 0.1086 0.9941 215.572 12.9247)" fill="#4D4D4D" font-family="'Montserrat-Bold'" font-size="22.5909px">R</text>
<text transform="matrix(0.8873 2.096893e-02 -2.362457e-02 0.9997 229.5885 11.4242)" fill="#4D4D4D" font-family="'Montserrat-Bold'" font-size="22.5909px">S</text>
<text transform="matrix(0.8821 9.854783e-02 -0.111 0.9938 242.0308 11.8656)" fill="#4D4D4D" font-family="'Montserrat-Bold'" font-size="22.5909px"> </text>
<text transform="matrix(0.8681 0.185 -0.2084 0.978 246.9866 12.162)" fill="#4D4D4D" font-family="'Montserrat-Bold'" font-size="22.5899px">A</text>
<text transform="matrix(0.8331 0.3061 -0.3449 0.9386 261.0869 15.1477)" fill="#4D4D4D" font-family="'Montserrat-Bold'" font-size="22.5901px">R</text>
<text transform="matrix(0.7799 0.4238 -0.4775 0.8786 274.3075 19.8941)" fill="#4D4D4D" font-family="'Montserrat-Bold'" font-size="22.5923px">O</text>
<text transform="matrix(0.7122 0.5297 -0.5968 0.8024 288.4009 27.5817)" fill="#4D4D4D" font-family="'Montserrat-Bold'" font-size="22.5909px">U</text>
<text transform="matrix(0.635 0.6202 -0.6987 0.7154 300.1355 36.224)" fill="#4D4D4D" font-family="'Montserrat-Bold'" font-size="22.5909px">N</text>
<text transform="matrix(0.5497 0.6969 -0.7851 0.6193 311.5048 47.3401)" fill="#4D4D4D" font-family="'Montserrat-Bold'" font-size="22.5899px">D</text>
</svg>
