<?xml version="1.0" encoding="utf-8"?>
<!-- Generator: Adobe Illustrator 19.1.0, SVG Export Plug-In . SVG Version: 6.00 Build 0)  -->
<!DOCTYPE svg PUBLIC "-//W3C//DTD SVG 1.1//EN" "http://www.w3.org/Graphics/SVG/1.1/DTD/svg11.dtd">
<svg version="1.1" id="Layer_1" xmlns="http://www.w3.org/2000/svg" xmlns:xlink="http://www.w3.org/1999/xlink" x="0px" y="0px"
	 viewBox="0 0 493.4 241.1" enable-background="new 0 0 493.4 241.1" xml:space="preserve">
<ellipse fill="#4D4D4D" cx="246.7" cy="219.7" rx="246.7" ry="10.5"/>
<path fill="#4C8575" d="M417.3,217.1H79.8c0.2-93,75.7-168.4,168.8-168.4S417.1,124.1,417.3,217.1z"/>
<line fill="#4C8575" x1="417.8" y1="217.1" x2="417.8" y2="217.1"/>
<line fill="#4C8575" x1="79.8" y1="217.1" x2="79.8" y2="217.1"/>
<rect x="199.6" y="122.5" fill="none" width="280.4" height="121.8"/>
<text transform="matrix(1 0 0 1 199.5804 201.9354)" fill="#FFFFFF" font-family="'Montserrat-Bold'" font-size="107px">iter</text>
<ellipse fill="none" cx="248.6" cy="287.5" rx="221.1" ry="249.1"/>
<text transform="matrix(0.5654 -0.6842 0.7709 0.637 78.0435 128.2439)" fill="#4D4D4D" font-family="'Montserrat-Bold'" font-size="45.1818px">P</text>
<text transform="matrix(0.6411 -0.6138 0.6915 0.7223 94.6763 107.8908)" fill="#4D4D4D" font-family="'Montserrat-Bold'" font-size="45.1818px">A</text>
<text transform="matrix(0.7134 -0.5281 0.595 0.8037 115.5737 87.8181)" fill="#4D4D4D" font-family="'Montserrat-Bold'" font-size="45.1818px">R</text>
<text transform="matrix(0.7713 -0.4393 0.4949 0.869 138.3496 71.0549)" fill="#4D4D4D" font-family="'Montserrat-Bold'" font-size="45.1818px">T</text>
<text transform="matrix(0.8226 -0.3333 0.3755 0.9268 158.541 59.1486)" fill="#4D4D4D" font-family="'Montserrat-Bold'" font-size="45.1818px">N</text>
<text transform="matrix(0.8614 -0.2141 0.2412 0.9705 187.9868 47.3786)" fill="#4D4D4D" font-family="'Montserrat-Bold'" font-size="45.1818px">E</text>
<text transform="matrix(0.8823 -9.640112e-02 0.1086 0.9941 212.4566 41.1272)" fill="#4D4D4D" font-family="'Montserrat-Bold'" font-size="45.1818px">R</text>
<text transform="matrix(0.8873 2.097249e-02 -2.362858e-02 0.9997 240.4912 38.1232)" fill="#4D4D4D" font-family="'Montserrat-Bold'" font-size="45.1818px">S</text>
<text transform="matrix(0.8821 9.854863e-02 -0.111 0.9938 265.373 39.009)" fill="#4D4D4D" font-family="'Montserrat-Bold'" font-size="45.1818px"> </text>
<text transform="matrix(0.8681 0.1848 -0.2082 0.9781 275.2432 39.5983)" fill="#4D4D4D" font-family="'Montserrat-Bold'" font-size="45.1818px">A</text>
<text transform="matrix(0.8331 0.3062 -0.3449 0.9386 303.4868 45.571)" fill="#4D4D4D" font-family="'Montserrat-Bold'" font-size="45.1818px">R</text>
<text transform="matrix(0.7799 0.4238 -0.4775 0.8787 329.9272 55.0661)" fill="#4D4D4D" font-family="'Montserrat-Bold'" font-size="45.1818px">O</text>
<text transform="matrix(0.7122 0.5297 -0.5968 0.8024 358.1118 70.4416)" fill="#4D4D4D" font-family="'Montserrat-Bold'" font-size="45.1818px">U</text>
<text transform="matrix(0.635 0.6202 -0.6987 0.7154 381.5835 87.7272)" fill="#4D4D4D" font-family="'Montserrat-Bold'" font-size="45.1818px">N</text>
<text transform="matrix(0.5496 0.697 -0.7853 0.6192 404.3511 109.989)" fill="#4D4D4D" font-family="'Montserrat-Bold'" font-size="45.1818px">D</text>
</svg>
